<svg>
    <symbol id="burger" viewBox="0 0 24 24" xmlns="http://www.w3.org/2000/svg">
        <path d="M4 18L20 18" stroke="#000000" stroke-width="2" stroke-linecap="round"/>
        <path d="M4 12L20 12" stroke="#000000" stroke-width="2" stroke-linecap="round"/>
        <path d="M4 6L20 6" stroke="#000000" stroke-width="2" stroke-linecap="round"/>
    </symbol>

    <symbol id="home" height="15" viewBox="0 0 15 15" fill="none" xmlns="http://www.w3.org/2000/svg">
        <path d="M1.25 5.75877V13.9169H13.75V5.75877L7.5 1.24647L1.25 5.75877ZM0.225 5.0894L7.1 0.125439C7.2123 0.0443857 7.35384 0 7.5 0C7.64616 0 7.78769 0.0443857 7.9 0.125439L14.775 5.0894C14.8454 5.14021 14.902 5.20379 14.9409 5.27567C14.9798 5.34754 15 5.42594 15 5.50532V14.4584C15 14.6021 14.9342 14.7398 14.8169 14.8414C14.6997 14.9429 14.5408 15 14.375 15H0.625C0.45924 15 0.300269 14.9429 0.183058 14.8414C0.0658481 14.7398 0 14.6021 0 14.4584V5.50532C3.43501e-05 5.42594 0.0202065 5.34754 0.0590882 5.27567C0.0979699 5.20379 0.154611 5.14021 0.225 5.0894Z"
              fill="#1B35E0"/>
    </symbol>

    <symbol id="building" width="15" height="15" viewBox="0 0 15 15" fill="none" xmlns="http://www.w3.org/2000/svg">
        <path d="M13.6364 13.3333H15V15H0V13.3333H1.36364V0.833333C1.36364 0.61232 1.43547 0.400357 1.56334 0.244077C1.6912 0.0877967 1.86463 0 2.04545 0H8.86364C9.04447 0 9.21789 0.0877967 9.34576 0.244077C9.47362 0.400357 9.54545 0.61232 9.54545 0.833333V13.3333H12.2727V6.66667H10.9091V5H12.9545C13.1354 5 13.3088 5.0878 13.4367 5.24408C13.5645 5.40036 13.6364 5.61232 13.6364 5.83333V13.3333ZM2.72727 1.66667V13.3333H8.18182V1.66667H2.72727ZM4.09091 6.66667H6.81818V8.33333H4.09091V6.66667ZM4.09091 3.33333H6.81818V5H4.09091V3.33333Z"
              fill="#1B35E0"/>
    </symbol>


    <symbol id="ring" width="15" height="15" viewBox="0 0 15 15" fill="none" xmlns="http://www.w3.org/2000/svg">
        <path d="M7.5 15C6.4625 15 5.4875 14.803 4.575 14.409C3.6625 14.015 2.86875 13.4807 2.19375 12.8062C1.51875 12.1317 0.9845 11.338 0.591001 10.425C0.197501 9.512 0.000500949 8.537 9.49366e-07 7.5C-0.00049905 6.463 0.196501 5.488 0.591001 4.575C0.9855 3.662 1.51975 2.86825 2.19375 2.19375C2.86775 1.51925 3.6615 0.985 4.575 0.591C5.4885 0.197 6.4635 0 7.5 0C8.5365 0 9.51149 0.197 10.425 0.591C11.3385 0.985 12.1322 1.51925 12.8062 2.19375C13.4802 2.86825 14.0147 3.662 14.4097 4.575C14.8047 5.488 15.0015 6.463 15 7.5C14.9985 8.537 14.8015 9.512 14.409 10.425C14.0165 11.338 13.4822 12.1317 12.8062 12.8062C12.1302 13.4807 11.3365 14.0152 10.425 14.4097C9.51349 14.8042 8.5385 15.001 7.5 15ZM7.5 13.5C9.17499 13.5 10.5937 12.9187 11.7562 11.7562C12.9187 10.5937 13.5 9.175 13.5 7.5C13.5 5.825 12.9187 4.40625 11.7562 3.24375C10.5937 2.08125 9.17499 1.5 7.5 1.5C5.825 1.5 4.40625 2.08125 3.24375 3.24375C2.08125 4.40625 1.5 5.825 1.5 7.5C1.5 9.175 2.08125 10.5937 3.24375 11.7562C4.40625 12.9187 5.825 13.5 7.5 13.5Z"
              fill="#1B35E0"/>
    </symbol>

    <symbol id="person" xmlns="http://www.w3.org/2000/svg" fill="currentColor" viewBox="0 0 16 16">
        <path d="M3 14s-1 0-1-1 1-4 6-4 6 3 6 4-1 1-1 1zm5-6a3 3 0 1 0 0-6 3 3 0 0 0 0 6"/>
    </symbol>

    <symbol id="shield" width="15" height="15" viewBox="0 0 15 15" fill="none" xmlns="http://www.w3.org/2000/svg">
        <path d="M12.1875 2.34375H2.8125C2.56386 2.34375 2.3254 2.44252 2.14959 2.61834C1.97377 2.79415 1.875 3.03261 1.875 3.28125V6.5625C1.875 9.65156 3.37031 11.5236 4.6248 12.5502C5.97598 13.6553 7.32012 14.0303 7.37871 14.0461C7.45928 14.068 7.54424 14.068 7.6248 14.0461C7.6834 14.0303 9.02578 13.6553 10.3787 12.5502C11.6297 11.5236 13.125 9.65156 13.125 6.5625V3.28125C13.125 3.03261 13.0262 2.79415 12.8504 2.61834C12.6746 2.44252 12.4361 2.34375 12.1875 2.34375ZM12.1875 6.5625C12.1875 8.73457 11.3871 10.4977 9.80859 11.802C9.12145 12.3678 8.33997 12.8081 7.5 13.1027C6.67105 12.8132 5.89922 12.3807 5.21953 11.8248C3.62227 10.5182 2.8125 8.74805 2.8125 6.5625V3.28125H12.1875V6.5625ZM4.82461 8.30039C4.73665 8.21243 4.68724 8.09314 4.68724 7.96875C4.68724 7.84436 4.73665 7.72507 4.82461 7.63711C4.91257 7.54915 5.03186 7.49974 5.15625 7.49974C5.28064 7.49974 5.39993 7.54915 5.48789 7.63711L6.5625 8.71231L9.51211 5.76211C9.55566 5.71856 9.60736 5.68401 9.66427 5.66044C9.72117 5.63687 9.78216 5.62474 9.84375 5.62474C9.90534 5.62474 9.96633 5.63687 10.0232 5.66044C10.0801 5.68401 10.1318 5.71856 10.1754 5.76211C10.2189 5.80566 10.2535 5.85736 10.2771 5.91427C10.3006 5.97117 10.3128 6.03216 10.3128 6.09375C10.3128 6.15534 10.3006 6.21633 10.2771 6.27323C10.2535 6.33014 10.2189 6.38184 10.1754 6.42539L6.89414 9.70664C6.85061 9.75022 6.79891 9.7848 6.742 9.80839C6.6851 9.83198 6.6241 9.84412 6.5625 9.84412C6.5009 9.84412 6.4399 9.83198 6.383 9.80839C6.32609 9.7848 6.27439 9.75022 6.23086 9.70664L4.82461 8.30039Z"
              fill="#1B35E0"/>
    </symbol>

    <symbol id="communaute" width="15" height="15" viewBox="0 0 15 15" fill="none" xmlns="http://www.w3.org/2000/svg">
        <path d="M7.5 2.34375C7.1892 2.34375 6.89113 2.46722 6.67136 2.68698C6.45159 2.90675 6.32812 3.20482 6.32812 3.51562C6.32812 3.82643 6.45159 4.1245 6.67136 4.34427C6.89113 4.56403 7.1892 4.6875 7.5 4.6875C7.8108 4.6875 8.10887 4.56403 8.32864 4.34427C8.54841 4.1245 8.67188 3.82643 8.67188 3.51562C8.67188 3.20482 8.54841 2.90675 8.32864 2.68698C8.10887 2.46722 7.8108 2.34375 7.5 2.34375ZM5.39062 3.51562C5.39062 2.95618 5.61286 2.41966 6.00845 2.02407C6.40403 1.62849 6.94056 1.40625 7.5 1.40625C8.05944 1.40625 8.59597 1.62849 8.99155 2.02407C9.38714 2.41966 9.60938 2.95618 9.60938 3.51562C9.60938 4.07507 9.38714 4.61159 8.99155 5.00718C8.59597 5.40276 8.05944 5.625 7.5 5.625C6.94056 5.625 6.40403 5.40276 6.00845 5.00718C5.61286 4.61159 5.39062 4.07507 5.39062 3.51562ZM2.8125 3.75C2.56386 3.75 2.3254 3.84877 2.14959 4.02459C1.97377 4.2004 1.875 4.43886 1.875 4.6875C1.875 4.93614 1.97377 5.1746 2.14959 5.35041C2.3254 5.52623 2.56386 5.625 2.8125 5.625C3.06114 5.625 3.2996 5.52623 3.47541 5.35041C3.65123 5.1746 3.75 4.93614 3.75 4.6875C3.75 4.43886 3.65123 4.2004 3.47541 4.02459C3.2996 3.84877 3.06114 3.75 2.8125 3.75ZM0.9375 4.6875C0.9375 4.19022 1.13504 3.71331 1.48667 3.36167C1.83831 3.01004 2.31522 2.8125 2.8125 2.8125C3.30978 2.8125 3.78669 3.01004 4.13833 3.36167C4.48996 3.71331 4.6875 4.19022 4.6875 4.6875C4.6875 5.18478 4.48996 5.66169 4.13833 6.01333C3.78669 6.36496 3.30978 6.5625 2.8125 6.5625C2.31522 6.5625 1.83831 6.36496 1.48667 6.01333C1.13504 5.66169 0.9375 5.18478 0.9375 4.6875ZM11.25 4.6875C11.25 4.43886 11.3488 4.2004 11.5246 4.02459C11.7004 3.84877 11.9389 3.75 12.1875 3.75C12.4361 3.75 12.6746 3.84877 12.8504 4.02459C13.0262 4.2004 13.125 4.43886 13.125 4.6875C13.125 4.93614 13.0262 5.1746 12.8504 5.35041C12.6746 5.52623 12.4361 5.625 12.1875 5.625C11.9389 5.625 11.7004 5.52623 11.5246 5.35041C11.3488 5.1746 11.25 4.93614 11.25 4.6875ZM12.1875 2.8125C11.6902 2.8125 11.2133 3.01004 10.8617 3.36167C10.51 3.71331 10.3125 4.19022 10.3125 4.6875C10.3125 5.18478 10.51 5.66169 10.8617 6.01333C11.2133 6.36496 11.6902 6.5625 12.1875 6.5625C12.6848 6.5625 13.1617 6.36496 13.5133 6.01333C13.865 5.66169 14.0625 5.18478 14.0625 4.6875C14.0625 4.19022 13.865 3.71331 13.5133 3.36167C13.1617 3.01004 12.6848 2.8125 12.1875 2.8125ZM3.98438 7.73438C3.98438 7.63 3.99266 7.52828 4.00922 7.42922L1.80609 8.01937C1.50594 8.09989 1.25005 8.29634 1.09472 8.56551C0.939392 8.83467 0.897339 9.15452 0.977812 9.45469L1.4025 11.0391C1.50501 11.4219 1.68726 11.7787 1.93731 12.0861C2.18736 12.3936 2.49956 12.6447 2.85345 12.8231C3.20734 13.0015 3.59493 13.103 3.99081 13.1211C4.3867 13.1392 4.78194 13.0734 5.15062 12.9281C4.89723 12.7007 4.67823 12.4376 4.50047 12.1472C4.03171 12.2445 3.54346 12.1589 3.13583 11.9078C2.7282 11.6567 2.43206 11.2592 2.30812 10.7967L1.88344 9.21234C1.87542 9.18261 1.87335 9.15159 1.87733 9.12106C1.8813 9.09052 1.89126 9.06107 1.90663 9.03438C1.922 9.0077 1.94247 8.9843 1.96688 8.96553C1.9913 8.94677 2.01917 8.93299 2.04891 8.925L3.98438 8.40656V7.73438ZM10.1517 13.028C10.049 13.0006 9.94788 12.9674 9.84891 12.9286C10.1025 12.7012 10.3216 12.4381 10.4995 12.1477C10.9682 12.2447 11.4563 12.1589 11.8637 11.9077C12.2712 11.6565 12.5671 11.2591 12.6909 10.7967L13.1152 9.21187C13.1312 9.15189 13.1228 9.08799 13.0918 9.03421C13.0607 8.98042 13.0096 8.94115 12.9497 8.925L11.0156 8.40656V7.73438C11.0156 7.63062 11.0073 7.52906 10.9908 7.42969L13.1925 8.01937C13.4927 8.09989 13.7485 8.29634 13.9039 8.56551C14.0592 8.83467 14.1013 9.15452 14.0208 9.45469L13.5961 11.0391C13.4031 11.7595 12.9317 12.3739 12.2858 12.7468C11.6399 13.1198 10.8722 13.221 10.1517 13.028ZM5.85938 6.5625C5.54857 6.5625 5.2505 6.68597 5.03073 6.90573C4.81097 7.1255 4.6875 7.42357 4.6875 7.73438V10.3125C4.6875 11.0584 4.98382 11.7738 5.51126 12.3012C6.03871 12.8287 6.75408 13.125 7.5 13.125C8.24592 13.125 8.96129 12.8287 9.48874 12.3012C10.0162 11.7738 10.3125 11.0584 10.3125 10.3125V7.73438C10.3125 7.42357 10.189 7.1255 9.96927 6.90573C9.7495 6.68597 9.45143 6.5625 9.14062 6.5625H5.85938ZM5.625 7.73438C5.625 7.67221 5.64969 7.6126 5.69365 7.56865C5.7376 7.52469 5.79721 7.5 5.85938 7.5H9.14062C9.20279 7.5 9.2624 7.52469 9.30635 7.56865C9.35031 7.6126 9.375 7.67221 9.375 7.73438V10.3125C9.375 10.8098 9.17746 11.2867 8.82582 11.6383C8.47419 11.99 7.99728 12.1875 7.5 12.1875C7.00272 12.1875 6.52581 11.99 6.17417 11.6383C5.82254 11.2867 5.625 10.8098 5.625 10.3125V7.73438Z"
              fill="#1B35E0"/>
    </symbol>


    <symbol id="market" width="15" height="15" viewBox="0 0 15 15" fill="none" xmlns="http://www.w3.org/2000/svg">
        <path d="M10.9375 4.06202H10.9319M8.11378 7.62827L6.25003 8.74952M6.25003 8.74952L4.38753 9.87077M6.25003 8.74952L6.2619 10.937M6.25003 8.74952L6.23878 6.56202M6.25003 8.74952L8.12503 9.81577M6.25003 8.74952L4.37503 7.68265M6.74753 1.82015C6.94006 1.62762 7.17077 1.47755 7.42481 1.3796C7.67885 1.28164 7.95059 1.23797 8.22253 1.2514L11.7244 1.42452C12.2073 1.44872 12.664 1.65148 13.0059 1.99345C13.3478 2.33542 13.5504 2.79221 13.5744 3.27515L13.7475 6.77765C13.7609 7.04948 13.7172 7.3211 13.6192 7.57503C13.5212 7.82896 13.3712 8.05957 13.1788 8.25202L8.44253 12.9883C7.95501 13.4753 7.29411 13.7488 6.60503 13.7488C5.91594 13.7488 5.25504 13.4753 4.76753 12.9883L2.01128 10.232C1.52428 9.74451 1.25073 9.08361 1.25073 8.39452C1.25073 7.70544 1.52428 7.04454 2.01128 6.55702L6.74753 1.82015Z"
              stroke="#1B35E0" stroke-width="1.5" stroke-linecap="round" stroke-linejoin="round"/>
    </symbol>


    <symbol id="earphone" width="15" height="15" viewBox="0 0 15 15" fill="none" xmlns="http://www.w3.org/2000/svg">
        <path d="M14.9977 8.38695C14.9991 8.07852 14.9505 6.91484 14.9135 6.58203C14.4869 2.76242 11.3869 -0.00976562 7.54265 -0.00976562C3.53858 -0.00976562 0.29438 3.07555 0.0742871 7.16656C0.0695996 7.25586 0.0367871 7.88938 0.0344434 8.26649L0.0332715 8.47625C0.0140381 8.56297 0.00231934 8.6525 0.00231934 8.74484V11.8892C0.00231934 12.5759 0.560835 13.1345 1.24755 13.1345H2.51154C3.19826 13.1345 3.75699 12.5759 3.75699 11.8892V8.74508C3.75699 8.05836 3.19801 7.49984 2.51152 7.49984H1.24732C1.16277 7.49986 1.07843 7.50842 0.995601 7.52539C1.00263 7.3733 1.00896 7.25328 1.01062 7.21695C1.20351 3.63125 4.04483 0.927734 7.54263 0.927734C10.9012 0.927734 13.609 3.34977 13.9816 6.68633C13.9973 6.82555 14.0175 7.17945 14.0336 7.53477C13.9429 7.51367 13.8494 7.49983 13.7524 7.49983H12.5032C11.8165 7.49983 11.2579 8.05835 11.2579 8.74506V11.8749C11.2579 12.349 11.5275 12.7576 11.9184 12.9676L8.90907 14.149V14.0726C8.90907 13.8139 8.69905 13.6039 8.44032 13.6039H7.03407C6.7753 13.6039 6.56532 13.8139 6.56532 14.0726V14.5414C6.56532 14.8001 6.7753 15.0101 7.03407 15.0101H8.44032C8.4443 15.0101 8.44782 15.009 8.4518 15.009L9.29204 15.0057L14.1195 13.1105C14.1828 13.0843 14.2364 13.0451 14.2805 12.9983C14.7031 12.7988 14.9981 12.3723 14.9981 11.8749V8.74505C14.9981 8.66864 14.9888 8.59435 14.9754 8.52191C14.9883 8.47878 14.9974 8.43402 14.9977 8.38691L14.9977 8.38695ZM1.24733 8.43734H2.51135C2.68127 8.43734 2.8193 8.57516 2.8193 8.74508V11.8895C2.8193 12.0594 2.68102 12.1972 2.51132 12.1972H1.24735C1.07743 12.1972 0.939629 12.0594 0.939629 11.8895V8.74508C0.939849 8.57516 1.07765 8.43734 1.24733 8.43734ZM12.1952 8.74508C12.1952 8.57516 12.3331 8.43734 12.503 8.43734H13.7522C13.9221 8.43734 14.0602 8.57516 14.0602 8.74508V11.8749C14.0602 12.0448 13.9219 12.1827 13.7522 12.1827H12.503C12.3331 12.1827 12.1952 12.0448 12.1952 11.8749V8.74508Z"
              fill="#1B35E0"/>
    </symbol>

    <symbol id="facebook" xmlns="http://www.w3.org/2000/svg" fill="none" viewBox="0 0 16 16">
        <path d="M16 8.049c0-4.446-3.582-8.05-8-8.05C3.58 0-.002 3.603-.002 8.05c0 4.017 2.926 7.347 6.75 7.951v-5.625h-2.03V8.05H6.75V6.275c0-2.017 1.195-3.131 3.022-3.131.876 0 1.791.157 1.791.157v1.98h-1.009c-.993 0-1.303.621-1.303 1.258v1.51h2.218l-.354 2.326H9.25V16c3.824-.604 6.75-3.934 6.75-7.951" fill="#103EAE"/>
    </symbol>

    <symbol id="instagram" xmlns="http://www.w3.org/2000/svg" fill="none" viewBox="0 0 16 16">
        <path d="M8 0C5.829 0 5.556.01 4.703.048 3.85.088 3.269.222 2.76.42a3.9 3.9 0 0 0-1.417.923A3.9 3.9 0 0 0 .42 2.76C.222 3.268.087 3.85.048 4.7.01 5.555 0 5.827 0 8.001c0 2.172.01 2.444.048 3.297.04.852.174 1.433.372 1.942.205.526.478.972.923 1.417.444.445.89.719 1.416.923.51.198 1.09.333 1.942.372C5.555 15.99 5.827 16 8 16s2.444-.01 3.298-.048c.851-.04 1.434-.174 1.943-.372a3.9 3.9 0 0 0 1.416-.923c.445-.445.718-.891.923-1.417.197-.509.332-1.09.372-1.942C15.99 10.445 16 10.173 16 8s-.01-2.445-.048-3.299c-.04-.851-.175-1.433-.372-1.941a3.9 3.9 0 0 0-.923-1.417A3.9 3.9 0 0 0 13.24.42c-.51-.198-1.092-.333-1.943-.372C10.443.01 10.172 0 7.998 0zm-.717 1.442h.718c2.136 0 2.389.007 3.232.046.78.035 1.204.166 1.486.275.373.145.64.319.92.599s.453.546.598.92c.11.281.24.705.275 1.485.039.843.047 1.096.047 3.231s-.008 2.389-.047 3.232c-.035.78-.166 1.203-.275 1.485a2.5 2.5 0 0 1-.599.919c-.28.28-.546.453-.92.598-.28.11-.704.24-1.485.276-.843.038-1.096.047-3.232.047s-2.39-.009-3.233-.047c-.78-.036-1.203-.166-1.485-.276a2.5 2.5 0 0 1-.92-.598 2.5 2.5 0 0 1-.6-.92c-.109-.281-.24-.705-.275-1.485-.038-.843-.046-1.096-.046-3.233s.008-2.388.046-3.231c.036-.78.166-1.204.276-1.486.145-.373.319-.64.599-.92s.546-.453.92-.598c.282-.11.705-.24 1.485-.276.738-.034 1.024-.044 2.515-.045zm4.988 1.328a.96.96 0 1 0 0 1.92.96.96 0 0 0 0-1.92m-4.27 1.122a4.109 4.109 0 1 0 0 8.217 4.109 4.109 0 0 0 0-8.217m0 1.441a2.667 2.667 0 1 1 0 5.334 2.667 2.667 0 0 1 0-5.334" fill="#103EAE"/>
    </symbol>


    <symbol id="mail" width="13" height="10" viewBox="0 0 13 10" fill="none" xmlns="http://www.w3.org/2000/svg">
        <path d="M1.25 10C0.90625 10 0.612083 9.87771 0.3675 9.63313C0.122917 9.38854 0.000416667 9.09417 0 8.75V1.25C0 0.90625 0.1225 0.612083 0.3675 0.3675C0.6125 0.122917 0.906667 0.000416667 1.25 0H11.25C11.5938 0 11.8881 0.1225 12.1331 0.3675C12.3781 0.6125 12.5004 0.906667 12.5 1.25V8.75C12.5 9.09375 12.3777 9.38813 12.1331 9.63313C11.8885 9.87813 11.5942 10.0004 11.25 10H1.25ZM6.25 5.625L1.25 2.5V8.75H11.25V2.5L6.25 5.625ZM6.25 4.375L11.25 1.25H1.25L6.25 4.375ZM1.25 2.5V1.25V8.75V2.5Z"
              fill="#1041B7"/>
    </symbol>


    <symbol id="phone" width="12" height="12" viewBox="0 0 12 12" fill="none" xmlns="http://www.w3.org/2000/svg">
        <path d="M2.2125 1.25C2.25 1.80625 2.34375 2.35 2.49375 2.86875L1.74375 3.61875C1.4875 2.86875 1.325 2.075 1.26875 1.25H2.2125ZM8.375 8.7625C8.90625 8.9125 9.45 9.00625 10 9.04375V9.975C9.175 9.91875 8.38125 9.75625 7.625 9.50625L8.375 8.7625ZM2.8125 0H0.625C0.28125 0 0 0.28125 0 0.625C0 6.49375 4.75625 11.25 10.625 11.25C10.9688 11.25 11.25 10.9688 11.25 10.625V8.44375C11.25 8.1 10.9688 7.81875 10.625 7.81875C9.85 7.81875 9.09375 7.69375 8.39375 7.4625C8.33187 7.43939 8.26601 7.42877 8.2 7.43125C8.0375 7.43125 7.88125 7.49375 7.75625 7.6125L6.38125 8.9875C4.60967 8.08146 3.16854 6.64033 2.2625 4.86875L3.6375 3.49375C3.8125 3.31875 3.8625 3.075 3.79375 2.85625C3.55707 2.13618 3.43681 1.38296 3.4375 0.625C3.4375 0.28125 3.15625 0 2.8125 0Z"
              fill="#103EAE"/>
    </symbol>

</svg>